<svg id="uuid-8a514fe9-3a7d-45f0-ae47-f064f861059f" xmlns="http://www.w3.org/2000/svg" viewBox="0 0 300 300" width="32" height="32"><defs><style>.uuid-89e03fdc-1708-4e3f-977d-8e1c34766f7b{fill:#fff;}.uuid-8a8f066b-c335-4635-89d2-86410613c9b0{fill:#00908c;}</style></defs><g id="uuid-06501f5b-281e-4a63-9a53-5152e0f09b96"><rect class="uuid-8a8f066b-c335-4635-89d2-86410613c9b0" width="300" height="300"/></g><path class="uuid-89e03fdc-1708-4e3f-977d-8e1c34766f7b" d="m58.5,79.4c-13.1,6-16.2,22.2-6.1,32.2,7.2,7.3,17.3,8.3,25.4,2.4,12.4-9,10.2-28.5-4-34.5-4.6-1.8-11.3-1.9-15.3-.1Z"/><path class="uuid-89e03fdc-1708-4e3f-977d-8e1c34766f7b" d="m238.5,79.9c-17.5,8.1-13.9,34.8,5.2,37.7,18.3,2.7,30.1-18.9,17.7-32.6-6.3-7-14.7-8.9-22.9-5.1Z"/><path class="uuid-89e03fdc-1708-4e3f-977d-8e1c34766f7b" d="m248,156.6c-16.3,7.7-31,12-43.9,13-4.2.2-8.5.7-9.7.9-3.7.8-22.7-1.4-30.9-3.5-4.4-1.1-11.9-3.9-16.7-6.1-4.7-2.3-9.8-4.2-11.3-4.2-5.6,0-10.5,5-10.5,10.5,0,6.4,8.7,12.7,25.3,18.2,15,4.9,22.9,6.1,41.2,6,19.3,0,29.8-1.8,47.3-7.9,26.7-9.3,34-15.8,28.2-25.3-3.8-6.2-8.4-6.5-19-1.6Z"/></svg>